<svg xmlns="http://www.w3.org/2000/svg" viewBox="0 0 24 24"><path fill="#009688" d="M12 2C6.48 2 2 6.48 2 12s4.48 10 10 10 10-4.48 10-10S17.52 2 12 2zm0 3.5c1.84 0 3.48.83 4.58 2.13-.62-.27-1.3-.43-2.02-.43-1.52 0-2.89.67-3.83 1.72C9.79 7.87 8.42 7.2 6.9 7.2c-.2 0-.4.01-.59.04A6.46 6.46 0 0 1 12 5.5zM5.5 12c0-.55.07-1.08.2-1.59.38-.13.78-.21 1.2-.21 1.71 0 3.1 1.21 3.1 2.7v.35c-.62.4-1.36.63-2.15.63-1.06 0-2.01-.41-2.7-1.07 0-.27-.05-.54-.05-.81H5.5zm6.5 6.5c-2.32 0-4.35-1.22-5.5-3.05.65.35 1.4.55 2.2.55 1.27 0 2.42-.5 3.27-1.32.85.81 2 1.32 3.27 1.32.8 0 1.55-.2 2.2-.55A6.49 6.49 0 0 1 12 18.5zm5.85-5.42c-.69.66-1.64 1.07-2.7 1.07-.79 0-1.53-.23-2.15-.63v-.35c0-1.49 1.39-2.7 3.1-2.7.42 0 .82.08 1.2.21.13.51.2 1.04.2 1.59 0 .27-.02.54-.05.81h.4z"/></svg>
