<svg xmlns="http://www.w3.org/2000/svg" viewBox="0 0 267 96" role="img" aria-label="Insula"><polygon points="82,48 65,77.4 31,77.4 14,48 31,18.6 65,18.6" fill="#0D9488" stroke="#0D9488" stroke-width="9" stroke-linejoin="round"/><g stroke="#99F6E4" stroke-width="3.2" stroke-linecap="round"><line x1="48" y1="48" x2="48" y2="31"/><line x1="48" y1="48" x2="34" y2="60"/><line x1="48" y1="48" x2="63" y2="60"/></g><circle cx="48" cy="48" r="6.5" fill="#99F6E4"/><circle cx="48" cy="31" r="5.5" fill="#FB923C"/><circle cx="34" cy="60" r="5.5" fill="#99F6E4"/><circle cx="63" cy="60" r="5.5" fill="#99F6E4"/><path transform="translate(112.00,63) scale(0.05000,-0.05000)" d="M84 0V730H248V0Z" fill="#5EEAD4"/><path transform="translate(127.40,63) scale(0.05000,-0.05000)" d="M73 0V548H200V313H191Q191 397 212.5 453.0Q234 509 278.0 537.0Q322 565 385 565H392Q488 565 538.5 502.5Q589 440 589 313V0H429V322Q429 366 403.0 394.0Q377 422 333 422Q288 422 260.5 393.5Q233 365 233 319V0Z" fill="#5EEAD4"/><path transform="translate(158.80,63) scale(0.05000,-0.05000)" d="M281 -17Q164 -17 98.0 31.0Q32 79 28 166H170Q174 140 201.5 119.5Q229 99 284 99Q326 99 353.5 113.5Q381 128 381 155Q381 179 360.0 193.5Q339 208 285 214L242 218Q143 228 93.5 273.0Q44 318 44 388Q44 446 73.0 485.0Q102 524 153.5 544.0Q205 564 271 564Q377 564 442.0 517.5Q507 471 510 383H368Q364 410 340.0 428.5Q316 447 269 447Q232 447 210.0 433.0Q188 419 188 395Q188 372 207.0 360.0Q226 348 269 343L312 339Q413 328 469.0 283.0Q525 238 525 162Q525 107 495.0 66.5Q465 26 410.0 4.5Q355 -17 281 -17Z" fill="#5EEAD4"/><path transform="translate(185.40,63) scale(0.05000,-0.05000)" d="M258 -17Q163 -17 112.0 44.5Q61 106 61 230V548H221V222Q221 178 246.0 152.0Q271 126 313 126Q356 126 383.0 153.0Q410 180 410 226V548H570V0H443V231H454Q454 148 432.5 92.5Q411 37 369.0 10.0Q327 -17 265 -17Z" fill="#5EEAD4"/><path transform="translate(216.45,63) scale(0.05000,-0.05000)" d="M80 0V730H241V0ZM15 612V730H241V612Z" fill="#5EEAD4"/><path transform="translate(231.00,63) scale(0.05000,-0.05000)" d="M404 0V162H377V338Q377 380 357.0 401.0Q337 422 293 422Q271 422 235.0 421.0Q199 420 161.0 418.0Q123 416 92 414V549Q115 551 146.0 553.0Q177 555 210.0 556.0Q243 557 272 557Q356 557 413.5 533.0Q471 509 501.0 460.5Q531 412 531 336V0ZM229 -14Q170 -14 125.5 7.0Q81 28 56.0 67.5Q31 107 31 162Q31 222 62.0 260.5Q93 299 149.0 317.5Q205 336 278 336H395V247H277Q235 247 212.5 226.5Q190 206 190 171Q190 138 212.5 117.5Q235 97 277 97Q304 97 325.5 106.5Q347 116 361.0 139.0Q375 162 377 203L415 163Q410 106 387.5 67.0Q365 28 325.5 7.0Q286 -14 229 -14Z" fill="#5EEAD4"/></svg>