<svg xmlns="http://www.w3.org/2000/svg" viewBox="0 0 96 96" role="img" aria-label="Insula"><path fill-rule="evenodd" fill="currentColor" d="M78.00,54.93 L69.00,70.47 Q65.00,77.40 57.00,77.40 L39.00,77.40 Q31.00,77.40 27.00,70.47 L18.00,54.93 Q14.00,48.00 18.00,41.07 L27.00,25.53 Q31.00,18.60 39.00,18.60 L57.00,18.60 Q65.00,18.60 69.00,25.53 L78.00,41.07 Q82.00,48.00 78.00,54.93 Z M41.5,48 a6.5,6.5 0 1,0 13.0,0 a6.5,6.5 0 1,0 -13.0,0 ZM42.5,31 a5.5,5.5 0 1,0 11.0,0 a5.5,5.5 0 1,0 -11.0,0 ZM28.5,60 a5.5,5.5 0 1,0 11.0,0 a5.5,5.5 0 1,0 -11.0,0 ZM57.5,60 a5.5,5.5 0 1,0 11.0,0 a5.5,5.5 0 1,0 -11.0,0 ZM49.70,48.00 L49.70,31.00 L46.30,31.00 L46.30,48.00 ZM46.89,46.71 L32.89,58.71 L35.11,61.29 L49.11,49.29 ZM46.94,49.33 L61.94,61.33 L64.06,58.67 L49.06,46.67 Z"/></svg>